<svg xmlns="http://www.w3.org/2000/svg" width="57.255" height="53.442" viewBox="0 0 57.255 53.442">
  <g id="Group_5736" data-name="Group 5736" transform="translate(0)">
    <path id="Path_7696" data-name="Path 7696" d="M13038.28,2339.2c-1.926,0-3.789,0-5.651,0a5.622,5.622,0,0,1-3.867-1.456,5.691,5.691,0,0,1-1.934-4.444q.006-8.468,0-16.935,0-6.559,0-13.118a5.734,5.734,0,0,1,6.023-6.031q22.6,0,45.2,0a5.727,5.727,0,0,1,6.029,6.024q0,14.967,0,29.934a5.73,5.73,0,0,1-6.028,6.026q-11.15,0-22.3.016a1.749,1.749,0,0,0-1.009.35q-6.4,5.076-12.765,10.191c-.187.149-.371.3-.561.443a1.915,1.915,0,0,1-3.136-1.543q0-4.323,0-8.646Zm3.816,5.56c.256-.2.4-.308.536-.419,3.414-2.73,6.835-5.452,10.233-8.2a3.25,3.25,0,0,1,2.177-.77c7.671.022,15.343.013,23.015.012a1.956,1.956,0,0,0,2.207-2.193q0-15,0-29.99a1.945,1.945,0,0,0-2.174-2.167h-45.254a1.955,1.955,0,0,0-2.19,2.208q0,14.966,0,29.931a1.949,1.949,0,0,0,2.188,2.212c2.4,0,4.809,0,7.214,0a1.909,1.909,0,0,1,2.046,2.052c.007,2.206,0,4.412,0,6.618Z" transform="translate(-13026.828 -2297.217)" fill="#fff"/>
    <path id="Path_7697" data-name="Path 7697" d="M13061,2323.7q-7.573,0-15.146,0a1.9,1.9,0,0,1-1.9-2.588,1.849,1.849,0,0,1,1.627-1.217,4.818,4.818,0,0,1,.535-.008q14.88,0,29.756,0a3.977,3.977,0,0,1,.771.041,1.9,1.9,0,0,1-.32,3.766c-1.311.027-2.623.009-3.936.009Z" transform="translate(-13032.374 -2304.614)" fill="#fff"/>
    <path id="Path_7698" data-name="Path 7698" d="M13053.4,2331.216q3.668,0,7.334,0a1.923,1.923,0,1,1,.033,3.815q-7.395,0-14.789,0a1.923,1.923,0,1,1,.027-3.815Q13049.7,2331.213,13053.4,2331.216Z" transform="translate(-13032.378 -2308.314)" fill="#fff"/>
  </g>
</svg>
