<svg xmlns="http://www.w3.org/2000/svg" width="98.017" height="98.016" viewBox="0 0 98.017 98.016">
  <g id="Group_1725" data-name="Group 1725" transform="translate(-12750.454 -1884.795)">
    <rect id="Rectangle_77" data-name="Rectangle 77" width="98.016" height="98.016" transform="translate(12750.454 1884.795)" fill="none"/>
    <g id="Rectangle_78" data-name="Rectangle 78">
      <path id="Path_7679" data-name="Path 7679" d="M12762.706,1913.382h61.26v65.343h-61.26Z" fill="none"/>
      <path id="Path_7680" data-name="Path 7680" d="M12766.382,1917.058v57.992h53.909v-57.992h-53.909m-3.676-3.676h61.26v65.344h-61.26Z" fill="#aaa"/>
    </g>
    <path id="Rectangle_79" data-name="Rectangle 79" d="M12820.9,1955.244h18.378v-27.567H12820.9" fill="none" stroke="#aaa" stroke-width="1.2"/>
    <path id="Vector_12" data-name="Vector 12" d="M12782.9,1890.921a5.658,5.658,0,0,1,.17,8c-.057.058-.112.114-.17.17a5.656,5.656,0,0,0-.17,8c.055.058.111.114.17.17" fill="none" stroke="#aaa" stroke-linecap="round" stroke-linejoin="round" stroke-width="1.2"/>
    <path id="Vector_13" data-name="Vector 13" d="M12795.153,1890.921a5.657,5.657,0,0,1,.17,8c-.057.058-.112.114-.17.17a5.657,5.657,0,0,0-.17,8c.055.058.111.114.17.17" fill="none" stroke="#aaa" stroke-linecap="round" stroke-linejoin="round" stroke-width="1.2"/>
    <path id="Vector_14" data-name="Vector 14" d="M12807.405,1890.921a5.657,5.657,0,0,1,.17,8c-.057.058-.112.114-.17.17a5.657,5.657,0,0,0-.17,8c.055.058.111.114.17.17" fill="none" stroke="#aaa" stroke-linecap="round" stroke-linejoin="round" stroke-width="1.2"/>
  </g>
</svg>
