<svg xmlns="http://www.w3.org/2000/svg" width="50" height="62.417" viewBox="0 0 50 62.417">
  <g id="Group_40482" data-name="Group 40482" transform="translate(-9275.387 -2348.431)" opacity="0.7">
    <path id="Path_43734" data-name="Path 43734" d="M9325.386,2410.848h-50v-.709q0-8.2,0-16.405a7.275,7.275,0,0,1,5.295-7.341q4.68-1.566,9.365-3.121c.307-.1.611-.209.964-.33,0-1,.012-1.994-.011-2.989a.945.945,0,0,0-.224-.511,14.457,14.457,0,0,1-2.454-4.842,1.782,1.782,0,0,0-.561-.813c-.847-.676-1.734-1.3-2.6-1.951a4.326,4.326,0,0,1-.906-5.453,3,3,0,0,1,2.472-1.348c.363-.017.729,0,1.162,0,0-1.09-.045-2.128.011-3.159a14.44,14.44,0,0,0-.765-5.625c-.236-.672-.376-1.379-.571-2.066a3.035,3.035,0,0,1,2.414-4.012c2.408-.444,4.835-.777,7.255-1.159.792-.124,1.6-.187,2.372-.389a11.085,11.085,0,0,1,4.632.176c2.654.416,5.306.851,7.963,1.256,2.563.392,3.607,2,2.909,4.506-.319,1.148-.666,2.289-.939,3.448a9.951,9.951,0,0,0-.269,2.044c-.037,1.667-.013,3.335-.013,5.1.426,0,.81-.012,1.191,0a2.86,2.86,0,0,1,2.847,2.315c.412,2.408.082,3.583-1.646,4.728-.019.012-.035.026-.054.037a7.06,7.06,0,0,0-3.517,4.315,13.466,13.466,0,0,1-1.62,2.868,2.3,2.3,0,0,0-.311.941c-.048.691.014,1.389-.025,2.081a.689.689,0,0,0,.58.819c3.271,1.067,6.533,2.169,9.8,3.257a7.176,7.176,0,0,1,5.256,7.283q0,8.169,0,16.34Zm-2.083-2.091v-.69q0-7.128,0-14.256a5.27,5.27,0,0,0-3.84-5.336q-3.233-1.085-6.468-2.165c-1.055-.352-2.113-.7-3.233-1.062a3.664,3.664,0,0,0,0,.627c.277,1.3-.362,1.888-1.5,2.447-3.205,1.568-6.548,2.889-9.465,5.008a1.03,1.03,0,0,0-.5.946c.017,4.622.01,9.244.01,13.865v.613H9312.9v-9.295h2.092v9.3Zm-32.315-23.475c-.279.079-.528.14-.771.221q-4.466,1.488-8.934,2.979a5.1,5.1,0,0,0-3.812,5.317q0,7.125,0,14.251v.691h8.369v-9.293h2.066v9.289h8.314v-.763q0-7.418-.01-14.836a.919.919,0,0,1,.5-.937c.52-.289,1-.649,1.574-1.029-1.983-.99-3.821-2.016-5.748-2.831-1.212-.512-1.8-1.181-1.535-2.5A2.619,2.619,0,0,0,9290.987,2385.282Zm-1.018-19.385c0,1.689.015,3.244,0,4.8-.051,4.756,2.133,8.258,6.081,10.725a8,8,0,0,0,6.386.951,11.764,11.764,0,0,0,8.216-9.58c.207-2.086.112-4.2.15-6.306a4.713,4.713,0,0,0-.049-.519A14.769,14.769,0,0,1,9289.97,2365.9Zm-.223-8.2h21.275c.367-1.287.728-2.534,1.081-3.783.36-1.272.067-1.7-1.241-1.895-2.807-.415-5.607-.859-8.415-1.259a10.923,10.923,0,0,0-2.63-.186c-1.764.185-3.512.523-5.265.8-1.688.269-3.379.534-5.065.819-.82.138-1.157.549-.976,1.211C9288.906,2354.84,9289.334,2356.267,9289.747,2357.694Zm1.446,6.323c5.561,6.194,14.716,4.813,18.4,0Zm-1.193-2.158h20.749v-2H9290Zm11.521,27.45c2.087-1.045,4.059-2.03,6.025-3.024.1-.05.227-.182.228-.277.014-1.4.01-2.79.01-4.36a11.215,11.215,0,0,1-6.263,2.959Zm-8.312-7.434c0,1.459.014,2.733-.009,4.006a.7.7,0,0,0,.457.748c1.77.863,3.527,1.753,5.291,2.63a4.75,4.75,0,0,0,.48.178v-4.711A11.947,11.947,0,0,1,9293.209,2381.875Zm-5.353-14.694c-1.049-.154-1.548-.066-1.841.316a2.826,2.826,0,0,0,0,2.3c.553.516,1.184.947,1.845,1.463Zm25.066-.061v4.134c.636-.485,1.224-.884,1.75-1.35a2.477,2.477,0,0,0,.036-2.441,1.288,1.288,0,0,0-.675-.329A7.572,7.572,0,0,0,9312.923,2367.12Z"/>
    <path id="Path_43735" data-name="Path 43735" d="M9304.608,2395.256h8.227v2.027h-8.227Z"/>
    <path id="Path_43736" data-name="Path 43736" d="M9302.432,2398.336h-2v-2.007h2Z"/>
    <path id="Path_43737" data-name="Path 43737" d="M9302.433,2402.5h-2v-2.011h2Z"/>
    <path id="Path_43738" data-name="Path 43738" d="M9302.432,2406.671h-2v-2.007h2Z"/>
  </g>
</svg>
