<svg xmlns="http://www.w3.org/2000/svg" width="69.122" height="43.201" viewBox="0 0 69.122 43.201">
  <g id="Group_2071" data-name="Group 2071" transform="translate(-4529.446 -8532.141)" opacity="0.7">
    <path id="Path_2623" data-name="Path 2623" d="M4598.568,8557.133a4.122,4.122,0,0,1-2.774,3.118,20.31,20.31,0,0,1-2.626.368v.628c0,1.731.021,3.465,0,5.2a5.4,5.4,0,0,1-8.009,4.852c-.041-.02-.083-.035-.166-.069a2.142,2.142,0,0,0-.178.316,5.331,5.331,0,0,1-6.107,3.7,5.392,5.392,0,0,1-4.428-5.423c-.025-2.856,0-5.713,0-8.571v-.7h-20.518v.745c0,2.834.023,5.668-.006,8.5a5.375,5.375,0,0,1-7,5.289,5.173,5.173,0,0,1-3.419-3.2c-.083-.207-.154-.415-.252-.684a5.609,5.609,0,0,1-3.167.752,5.392,5.392,0,0,1-5.051-5.485c-.027-1.955,0-3.91,0-5.964-.426,0-.82.006-1.215,0a4.065,4.065,0,0,1-4.181-3.946c0-.079,0-.157,0-.236-.021-1.687-.016-3.374,0-5.062a4.073,4.073,0,0,1,3.884-4.251c.121,0,.243,0,.365,0,.356,0,.712,0,1.147,0v-2.049c0-1.327-.027-2.655.008-3.981a5.39,5.39,0,0,1,7.969-4.773.675.675,0,0,0,.1.043,14.871,14.871,0,0,1,1.565-2.405,5.129,5.129,0,0,1,5.875-1.269,5.361,5.361,0,0,1,3.368,5.077c.027,2.856.007,5.715.007,8.57v.755h20.518v-.714c0-2.856-.026-5.714.007-8.57a5.37,5.37,0,0,1,7.021-5.253,5.167,5.167,0,0,1,3.4,3.217c.081.207.158.415.256.667a5.293,5.293,0,0,1,4.175-.588,5.373,5.373,0,0,1,4.031,5.339c.021,1.731,0,3.465,0,5.2v.739h1.037a4.056,4.056,0,0,1,4.241,3.141,1.6,1.6,0,0,0,.119.234Zm-47.515-3.377v-13.765c0-.855.031-1.712-.015-2.564a2.689,2.689,0,0,0-3.627-2.393,2.785,2.785,0,0,0-1.756,2.834v31.782c0,.18,0,.359.017.539a2.681,2.681,0,0,0,3.716,2.242,2.72,2.72,0,0,0,1.67-2.753q-.015-7.957,0-15.92Zm31.317.024v-12.146c0-1.372.029-2.745-.011-4.116a2.694,2.694,0,0,0-3.61-2.491,2.738,2.738,0,0,0-1.776,2.75q0,15.993,0,31.983a4.126,4.126,0,0,0,.019.473,2.683,2.683,0,0,0,3.812,2.155,2.723,2.723,0,0,0,1.57-2.683q-.012-7.96,0-15.923Zm-39.415,0v-5.263c0-2.519.022-5.039-.011-7.557a2.687,2.687,0,0,0-3.607-2.562,2.74,2.74,0,0,0-1.78,2.748q-.006,12.617,0,25.234a3.16,3.16,0,0,0,.02.472,2.62,2.62,0,0,0,1.845,2.277,2.688,2.688,0,0,0,3.529-2.731c.012-4.2.006-8.406.006-12.612Zm47.514-.024v-6.68c0-2.046.026-4.094-.011-6.141a2.691,2.691,0,0,0-3.63-2.53,2.776,2.776,0,0,0-1.758,2.834v23.009c0,.788-.016,1.575.007,2.361a2.7,2.7,0,0,0,5.392-.009c0-.053,0-.1-.005-.157.015-4.226,0-8.453.005-12.682Zm-16.221-4h-20.44v8.019h20.414v-2.663h-8.873a4.65,4.65,0,0,1-.606-.017,1.336,1.336,0,0,1,.031-2.67,5.973,5.973,0,0,1,.606-.013h8.871Zm-39.417-.044c-.472,0-.875-.02-1.275,0a1.354,1.354,0,0,0-1.392,1.313c0,.038,0,.074,0,.112q-.037,2.626,0,5.253a1.288,1.288,0,0,0,1.139,1.37,11.871,11.871,0,0,0,1.526.014Zm58.365,8.092c.477,0,.881.021,1.283,0a1.334,1.334,0,0,0,1.375-1.292v-.074q.045-2.692,0-5.385a1.222,1.222,0,0,0-1.078-1.276,10.226,10.226,0,0,0-1.576-.016Z"/>
    <path id="Path_2624" data-name="Path 2624" d="M4558.084,8553.708a1.341,1.341,0,1,1,1.289,1.391A1.391,1.391,0,0,1,4558.084,8553.708Z"/>
  </g>
</svg>
