<svg xmlns="http://www.w3.org/2000/svg" width="59.999" height="37.382" viewBox="0 0 59.999 37.382">
  <g id="Group_40474" data-name="Group 40474" transform="translate(-8933.855 -1977.602)" opacity="0.7">
    <path id="Path_43702" data-name="Path 43702" d="M8933.855,1987.379a24.771,24.771,0,0,1,1.908-1.773,38.315,38.315,0,0,1,14.376-6.42,59.2,59.2,0,0,1,19.253-1.327,50.23,50.23,0,0,1,16.381,4.109,30.936,30.936,0,0,1,7.473,4.665,1.263,1.263,0,0,1,.53,1.483,1.24,1.24,0,0,1-1.345.811c-.7.007-1.4,0-2.153,0v13.117c.3,0,.608-.011.915,0,.855.036,1.4.548,1.377,1.273a1.251,1.251,0,0,1-1.407,1.172c-1.561.009-3.121,0-4.72,0-.093.463-.153.9-.268,1.33a11.753,11.753,0,0,1-9.2,8.83,13.524,13.524,0,0,1-3.135.311c-6.661.026-13.322.015-19.982.013a12.327,12.327,0,0,1-10.537-5.2,10.463,10.463,0,0,1-1.924-4.723c-.071-.494-.26-.584-.705-.575-1.328.028-2.656.013-3.985.007a2.745,2.745,0,0,1-.7-.068,1.165,1.165,0,0,1-.861-1.183,1.09,1.09,0,0,1,.878-1.1,12.763,12.763,0,0,1,1.424-.139v-13.071c-.627,0-1.266-.035-1.9.009a1.6,1.6,0,0,1-1.7-.856Zm30.007,25.163q5.01,0,10.019,0a11.548,11.548,0,0,0,3.962-.657,9.473,9.473,0,0,0,6.18-8.038,9.36,9.36,0,0,0-9.184-9.76c-7.165-.127-14.335-.044-21.5-.044a9.966,9.966,0,0,0-5.171,1.464,8.925,8.925,0,0,0-2.464,13.376,9.893,9.893,0,0,0,8.082,3.659Q8958.822,2012.549,8963.862,2012.542ZM8940,1986.451h47.942c-.2-.369-.265-.729-.477-.86a21.118,21.118,0,0,0-2.218-1.182,48.991,48.991,0,0,0-18.108-4.271,56.994,56.994,0,0,0-11.158.442,44.693,44.693,0,0,0-15.535,4.872C8940,1985.693,8939.836,1985.945,8940,1986.451Zm47.762,2.522H8939.97v13.072c.321,0,.612-.02.9.005.352.03.449-.118.507-.456a11.933,11.933,0,0,1,11.558-9.977c6.913-.079,13.827-.032,20.741-.027a15.415,15.415,0,0,1,2.394.14,11.816,11.816,0,0,1,9.175,6.5,29.84,29.84,0,0,1,1.344,3.771h1.171Z"/>
    <path id="Path_43703" data-name="Path 43703" d="M8973.065,2000.826a3.62,3.62,0,0,0-1.062.62,4.454,4.454,0,0,1-6.35.323,3.94,3.94,0,0,0-1.19-.716,1.558,1.558,0,0,0-1.867.424,4.392,4.392,0,0,1-6.288.281,1.226,1.226,0,0,1-.275-1.759,1.212,1.212,0,0,1,1.722-.189,6.522,6.522,0,0,0,.738.47,1.739,1.739,0,0,0,2.271-.424,4.376,4.376,0,0,1,5.892-.416,7.562,7.562,0,0,0,1.581.96,1.487,1.487,0,0,0,1.8-.463,4.417,4.417,0,0,1,6.382-.163,1.22,1.22,0,0,1,.191,1.727,1.187,1.187,0,0,1-1.678.172A3.758,3.758,0,0,0,8973.065,2000.826Z"/>
    <path id="Path_43704" data-name="Path 43704" d="M8954.435,2003.667a5.835,5.835,0,0,1,3.006,1.158,6.23,6.23,0,0,0,1.5.868,1.444,1.444,0,0,0,1.7-.455,4.418,4.418,0,0,1,6.336-.26,1.22,1.22,0,1,1-1.478,1.935,4.643,4.643,0,0,0-1-.578,1.649,1.649,0,0,0-1.964.464,4.337,4.337,0,0,1-6.015.4c-.245-.193-.484-.394-.739-.573a2.017,2.017,0,0,0-2.619.153,1.144,1.144,0,0,1-1.718.081,1.211,1.211,0,0,1,.027-1.774,4.065,4.065,0,0,1,1.145-.889A12.822,12.822,0,0,1,8954.435,2003.667Z"/>
  </g>
</svg>
