<svg xmlns="http://www.w3.org/2000/svg" width="59.999" height="46.587" viewBox="0 0 59.999 46.587">
  <g id="Group_40475" data-name="Group 40475" transform="translate(-9102.121 -1972.999)" opacity="0.7">
    <path id="Path_43705" data-name="Path 43705" d="M9122.547,1995.306c-.839-1.5-1.663-2.959-2.481-4.425a5.551,5.551,0,0,1,2.591-8.172q9.681-4.6,19.374-9.175a4.831,4.831,0,1,1,4.3,8.648c-3,1.521-6.009,3.01-9.014,4.514-1.727.864-3.45,1.733-5.219,2.621.145.222.253.4.37.569q5.212,7.617,10.417,15.237a1.9,1.9,0,0,0,1.088.764,17.206,17.206,0,0,1,3.15,1.342,7.3,7.3,0,0,0,7.865.121,11.054,11.054,0,0,1,5.593-1.74,1.364,1.364,0,0,1,1.459,1.793,1.216,1.216,0,0,1-1.187.911,10.214,10.214,0,0,0-4.9,1.613,9.6,9.6,0,0,1-9.973-.257,7.777,7.777,0,0,0-8.65,0,9.644,9.644,0,0,1-10.474-.021,7.681,7.681,0,0,0-8.536-.015,9.788,9.788,0,0,1-10.59,0,8.277,8.277,0,0,0-4.08-1.3,1.382,1.382,0,0,1-1.521-1.438,1.354,1.354,0,0,1,1.659-1.267,3.4,3.4,0,0,0,2.317-.607q7.906-4.691,15.838-9.337C9122.139,1995.574,9122.33,1995.444,9122.547,1995.306Zm17.394,10.37c-.146-.224-.269-.42-.4-.611q-4.7-6.844-9.411-13.688c-1.4-2.036-.988-3.637,1.2-4.733q6.822-3.411,13.641-6.825a2.377,2.377,0,0,0,1.32-1.313,2.064,2.064,0,0,0-.572-2.274,2.12,2.12,0,0,0-2.5-.251q-9.741,4.626-19.491,9.239a2.809,2.809,0,0,0-1.334,4.247c.773,1.372,1.56,2.737,2.338,4.106,1.034,1.821.662,3.242-1.146,4.309q-7.37,4.347-14.745,8.685c-.135.08-.259.178-.4.278a7.411,7.411,0,0,0,8.593.4,10.053,10.053,0,0,1,11.153.039,7.168,7.168,0,0,0,7.855,0,10.82,10.82,0,0,1,3.577-1.474A1.822,1.822,0,0,0,9139.94,2005.676Z"/>
    <path id="Path_43706" data-name="Path 43706" d="M9132.132,2019.52a9.605,9.605,0,0,1-5.331-1.5,7.534,7.534,0,0,0-8.524.017,9.681,9.681,0,0,1-10.476.016,8.5,8.5,0,0,0-4.32-1.35,1.334,1.334,0,0,1-1.359-1.328,1.356,1.356,0,0,1,1.385-1.368,9.528,9.528,0,0,1,5.543,1.633,7.127,7.127,0,0,0,5.817.917,7.836,7.836,0,0,0,2.095-.9,10.109,10.109,0,0,1,11.209.005,7.173,7.173,0,0,0,7.858.012,10.151,10.151,0,0,1,11.058-.106,7.542,7.542,0,0,0,8.375-.09,9.353,9.353,0,0,1,5.143-1.47,1.36,1.36,0,1,1,.031,2.706,7.529,7.529,0,0,0-3.861,1.148,10.018,10.018,0,0,1-10.939.114,7.6,7.6,0,0,0-8.486.092A9.509,9.509,0,0,1,9132.132,2019.52Z"/>
    <path id="Path_43707" data-name="Path 43707" d="M9141.226,1994.391a9.752,9.752,0,1,1,9.822,9.761A9.8,9.8,0,0,1,9141.226,1994.391Zm9.724,7.013a7,7,0,1,0-6.975-7A6.971,6.971,0,0,0,9150.949,2001.4Z"/>
  </g>
</svg>
