<svg xmlns="http://www.w3.org/2000/svg" width="60" height="50.27" viewBox="0 0 60 50.27">
  <g id="Group_40477" data-name="Group 40477" transform="translate(-9438.652 -1971.158)" opacity="0.7">
    <path id="Path_43718" data-name="Path 43718" d="M9463.039,1998.251c-.1.294-.183.5-.244.718q-3.025,10.587-6.048,21.177c-.052.18-.093.364-.158.539a1.014,1.014,0,0,1-1.228.7,1,1,0,0,1-.68-1.285c.363-1.323.75-2.641,1.126-3.961.063-.217.117-.437.191-.714h-.6c-4.251,0-8.5.009-12.755-.013-.479,0-.64.169-.753.593-.383,1.448-.8,2.886-1.211,4.326-.245.859-.724,1.232-1.333,1.054-.633-.184-.844-.73-.6-1.587q5.711-20.04,11.427-40.079.659-2.31,1.318-4.62a5.041,5.041,0,0,1,6.269-3.792,6.113,6.113,0,0,1,3.261,1.447,4.947,4.947,0,0,1,1.425,4.913,1.32,1.32,0,0,1-.1.36c-1.062,1.878-.221,3.506.682,5.117a.672.672,0,0,0,.479.266c1.622.1,1.627.091,2.071-1.46q.973-3.39,1.931-6.781a5.064,5.064,0,0,1,6.468-3.814,5.9,5.9,0,0,1,3.069,1.418,4.9,4.9,0,0,1,1.4,4.918c-.18.727-.434,1.436-.59,2.166a1.578,1.578,0,0,0,.075.942q8.042,17.079,16.107,34.149a.727.727,0,0,0,.8.486c.854-.032,1.709-.014,2.564-.008s1.23.355,1.236,1.2q.012,1.812,0,3.625c-.008.809-.377,1.173-1.2,1.173q-11.316.006-22.635.009a1.293,1.293,0,0,1-1.251-.926q-5.08-10.783-10.18-21.557C9463.284,1998.74,9463.181,1998.538,9463.039,1998.251Zm1.063-12.834c.66,1.4,1.286,2.732,1.913,4.061q6,12.69,11.985,25.381c.173.366.326.607.81.576.83-.053,1.666-.016,2.5-.014,1.012,0,1.328.327,1.33,1.356q0,1.3,0,2.6h6.4c-.19-.411-.353-.767-.52-1.12q-7.62-16.129-15.229-32.264a.841.841,0,0,0-.927-.593c-1.02.043-2.041.013-3.062.013Zm-12.937-2h.674c1.667,0,3.338.063,5-.022a1.868,1.868,0,0,1,2.045,1.286q8.03,17.121,16.124,34.211a.774.774,0,0,0,.832.542c1.417-.032,2.834-.011,4.252-.014.177,0,.355-.023.51-.034v-1.964c-.845,0-1.656-.045-2.462.012a1.5,1.5,0,0,1-1.634-1.029q-4.789-10.23-9.635-20.434-3.318-7.026-6.65-14.045c-.1-.213-.382-.484-.582-.487-2.521-.033-5.043-.026-7.564-.011a.532.532,0,0,0-.414.249C9451.472,1982.223,9451.337,1982.788,9451.164,1983.416Zm45.454,34.005c-.878,0-1.71-.04-2.537.011a1.43,1.43,0,0,1-1.543-.975c-1.573-3.4-3.182-6.778-4.782-10.163q-5.744-12.159-11.479-24.321a.808.808,0,0,0-.879-.569c-1.062.04-2.125.012-3.188.012h-4.391l-.571,2c1.993,0,3.929.037,5.862-.016a1.578,1.578,0,0,1,1.673,1.069c2.515,5.391,5.067,10.764,7.608,16.143q4.32,9.139,8.646,18.276c.1.21.33.505.506.509,1.681.039,3.363.023,5.075.023Zm-35.474-19.973h-13.972l-1.121,3.971h7.506c1.979,0,3.957.01,5.936-.015.209,0,.549-.162.6-.322C9460.472,1999.9,9460.792,1998.695,9461.145,1997.448Zm-1.728,6.043a.577.577,0,0,0-.118-.045q-6.743-.015-13.483-.018c-.134,0-.354.1-.385.205-.371,1.24-.714,2.489-1.079,3.786,4.587,0,9.081,0,13.575-.01.147,0,.393-.114.426-.226C9458.727,2005.956,9459.068,2004.719,9459.417,2003.491Zm-16.765,9.907h13.94l1.122-3.957h-13.941Zm6.231-21.981-1.122,3.97H9461.7c-.576-1.219-1.137-2.37-1.659-3.539a.646.646,0,0,0-.7-.439c-1.956.017-3.912.009-5.868.008Zm11-12.017c.224-.807.466-1.581.648-2.369a2.951,2.951,0,0,0-2.017-3.485c-.436-.135-.889-.217-1.335-.315a3,3,0,0,0-3.683,2.165c-.358,1.173-.7,2.351-1.042,3.528a4.632,4.632,0,0,0-.085.476Zm8.506-.01h7.5c.221-.793.465-1.566.646-2.353a2.949,2.949,0,0,0-2-3.487,11.828,11.828,0,0,0-1.578-.365,2.909,2.909,0,0,0-3.271,1.819C9469.19,1976.432,9468.822,1977.9,9468.388,1979.39Zm-18.923,9.994h9.4c-.608-1.293-1.185-2.533-1.784-3.762a.52.52,0,0,0-.4-.2q-2.875-.02-5.751,0a.516.516,0,0,0-.4.259C9450.157,1986.9,9449.822,1988.118,9449.465,1989.384Z"/>
  </g>
</svg>
