<svg xmlns="http://www.w3.org/2000/svg" width="40" height="50.496" viewBox="0 0 40 50.496">
  <g id="Group_40480" data-name="Group 40480" transform="translate(-8943.854 -2354.391)" opacity="0.7">
    <path id="Path_43729" data-name="Path 43729" d="M8963.558,2354.391a7.445,7.445,0,0,1,3.049,1.289,6.3,6.3,0,1,1-4.945-1.19,2.519,2.519,0,0,0,.319-.1Zm3.443,6.3a4.205,4.205,0,1,0-4.185,4.226A4.237,4.237,0,0,0,8967,2360.691Z"/>
    <path id="Path_43730" data-name="Path 43730" d="M8967.007,2379.02c0,1.373-.015,2.589.006,3.8.012.663.471,1.032,1.242,1.034,2.2.005,4.406-.032,6.607.019a8.251,8.251,0,0,1,2.512.384,7.1,7.1,0,0,1,4.939,5.965q.771,4.914,1.5,9.836a4.238,4.238,0,0,1-3.312,4.732,4.19,4.19,0,0,1-5.007-3.075c-.641-2.7-1.191-5.417-1.774-8.128-.244-1.136-.464-1.322-1.627-1.322-2,0-4.01,0-6.016,0a7.318,7.318,0,0,1-7.479-7.347c-.043-4.174-.021-8.349,0-12.524a3.141,3.141,0,0,1,3.3-3.282c.724-.008,1.447,0,2.17,0a5.406,5.406,0,0,1,3.981,1.656c1.388,1.4,2.794,2.783,4.179,4.187a1.465,1.465,0,0,0,1.136.475c1.035-.017,2.072-.026,3.106,0a3.155,3.155,0,0,1,.7,6.234.481.481,0,0,1-.095.024c-2.116-.026-4.237.017-6.348-.111a4.207,4.207,0,0,1-2.622-1.456Zm-6.315-.239c0,1.874,0,3.748,0,5.622a7.8,7.8,0,0,0,.054,1.229,5.25,5.25,0,0,0,5.361,4.538c2.137.016,4.273-.007,6.409.007a3.115,3.115,0,0,1,3.176,2.611q.88,4.116,1.776,8.23a2.161,2.161,0,0,0,2.716,1.691,2.243,2.243,0,0,0,1.5-2.78c-.461-2.97-.977-5.932-1.345-8.913a5.475,5.475,0,0,0-5.819-5.077c-2.1.088-4.208.021-6.312.016a3.137,3.137,0,0,1-3.3-3.273c-.019-2,0-4.01-.007-6.016a1.09,1.09,0,0,1,.667-1.151,1.109,1.109,0,0,1,1.28.373c.924.934,1.858,1.86,2.789,2.789a3.193,3.193,0,0,0,2.35.966c1.43,0,2.859,0,4.29,0,.759,0,1.231-.4,1.24-1.036s-.458-1.052-1.212-1.057c-.969-.007-1.938-.011-2.909,0a3.475,3.475,0,0,1-2.649-1.089c-1.38-1.409-2.791-2.788-4.182-4.188a3.3,3.3,0,0,0-2.516-1.041c-.689.016-1.38,0-2.071,0-.927,0-1.28.358-1.281,1.283Q8960.689,2375.65,8960.691,2378.781Z"/>
    <path id="Path_43731" data-name="Path 43731" d="M8957.406,2402.8a11.662,11.662,0,0,0,10.893-7.383c.352-.9.872-1.225,1.528-.954.618.255.768.856.432,1.725a13.668,13.668,0,1,1-15.314-18.39c.841-.161,1.425.159,1.513.83a1.07,1.07,0,0,1-1.007,1.217,11.569,11.569,0,0,0,.288,22.8,5.711,5.711,0,0,0,.585.081C8956.732,2402.757,8957.142,2402.78,8957.406,2402.8Z"/>
  </g>
</svg>
